<svg width="20" height="20" viewBox="0 0 20 20" fill="none" xmlns="http://www.w3.org/2000/svg">

    <path
        d="M10.0002 11.667C10.4689 11.667 11.1557 10.1819 11.2347 7.91699H8.76562C8.84461 10.1819 9.53137 11.667 10.0002 11.667Z"
        fill="currentColor" />
    <path
        d="M11.334 3.57227C11.7812 4.44547 12.0324 5.74602 12.0755 7.08324H14.1242C13.9579 5.44094 12.847 4.0884 11.334 3.57227Z"
        fill="currentColor" />
    <path
        d="M5.875 7.08324H7.92375C7.9668 5.74602 8.21805 4.44547 8.66523 3.57227C7.15227 4.0884 6.04129 5.44094 5.875 7.08324Z"
        fill="currentColor" />
    <path
        d="M10.0002 3.33301C9.53137 3.33301 8.84461 4.81809 8.76562 7.08301H11.2347C11.1557 4.81812 10.4689 3.33301 10.0002 3.33301Z"
        fill="currentColor" />
    <path
        d="M15.8333 0H4.16668C3.24746 0 2.5 0.747461 2.5 1.66668V18.3334C2.5 19.2525 3.24746 20 4.16668 20H15.8334C16.7525 20 17.5 19.2525 17.5 18.3333V1.66668C17.5 0.747461 16.7525 0 15.8333 0ZM12.9167 17.5H7.08332C6.85301 17.5 6.66664 17.3136 6.66664 17.0833C6.66664 16.853 6.85301 16.6666 7.08332 16.6666H12.9166C13.147 16.6666 13.3333 16.853 13.3333 17.0833C13.3333 17.3136 13.147 17.5 12.9167 17.5ZM14.5833 15H5.41668C5.18637 15 5 14.8136 5 14.5833C5 14.353 5.18637 14.1666 5.41668 14.1666H14.5834C14.8137 14.1666 15 14.353 15 14.5833C15 14.8136 14.8136 15 14.5833 15ZM10 12.5C7.24285 12.5 5 10.2571 5 7.5C5 4.74285 7.24285 2.5 10 2.5C12.7571 2.5 15 4.74285 15 7.5C15 10.2571 12.7571 12.5 10 12.5Z"
        fill="currentColor" />
    <path
        d="M11.334 11.428C12.847 10.9118 13.9579 9.55926 14.1242 7.91699H12.0755C12.0324 9.25422 11.7812 10.5548 11.334 11.428Z"
        fill="currentColor" />
    <path
        d="M5.875 7.91699C6.04129 9.5593 7.15227 10.9118 8.66523 11.428C8.21805 10.5548 7.9668 9.25422 7.92375 7.91699H5.875Z"
        fill="currentColor" />

</svg>
