<svg width="20" height="20" viewBox="0 0 20 20" fill="none" xmlns="http://www.w3.org/2000/svg">

    <path fill-rule="evenodd" clip-rule="evenodd"
        d="M2.45489 3.84223L7.85802 9.24769C9.03646 10.4239 10.9628 10.4249 12.1422 9.24769L17.5453 3.84223C17.5997 3.78781 17.5918 3.6982 17.5287 3.65418C16.9776 3.26984 16.3071 3.04199 15.5848 3.04199H4.41544C3.69313 3.04199 3.02263 3.26988 2.47153 3.65418C2.40841 3.6982 2.40048 3.78781 2.45489 3.84223ZM1.01099 6.44641C1.01099 5.87844 1.15181 5.3418 1.39985 4.87012C1.43864 4.79633 1.53696 4.78141 1.59591 4.84035L6.93063 10.1751C8.61997 11.8669 11.3793 11.8679 13.0696 10.1751L18.4043 4.84035C18.4633 4.78141 18.5616 4.79633 18.6004 4.87012C18.8484 5.3418 18.9893 5.87848 18.9893 6.44641V13.5533C18.9893 15.432 17.4611 16.9578 15.5848 16.9578H4.41544C2.53919 16.9578 1.01099 15.432 1.01099 13.5533V6.44641Z"
        fill="currentColor" />
</svg>
