<svg width="18" height="18" viewBox="0 0 18 18" fill="none" xmlns="http://www.w3.org/2000/svg">
    <path
        d="M12.375 8.25H5.625C5.5265 8.25003 5.42896 8.23064 5.33796 8.19296C5.24695 8.15528 5.16426 8.10004 5.09461 8.03039C5.02496 7.96074 4.96972 7.87805 4.93204 7.78704C4.89436 7.69604 4.87497 7.5985 4.875 7.5V4.875C4.875 3.78098 5.3096 2.73177 6.08318 1.95818C6.85677 1.1846 7.90598 0.75 9 0.75C10.094 0.75 11.1432 1.1846 11.9168 1.95818C12.6904 2.73177 13.125 3.78098 13.125 4.875V7.5C13.125 7.5985 13.1056 7.69604 13.068 7.78704C13.0303 7.87805 12.975 7.96074 12.9054 8.03039C12.8357 8.10004 12.753 8.15528 12.662 8.19296C12.571 8.23064 12.4735 8.25003 12.375 8.25ZM6.375 6.75H11.625V4.875C11.625 4.17881 11.3484 3.51113 10.8562 3.01884C10.3639 2.52656 9.69619 2.25 9 2.25C8.30381 2.25 7.63613 2.52656 7.14384 3.01884C6.65156 3.51113 6.375 4.17881 6.375 4.875V6.75Z"
        fill="currentColor" />
    <path
        d="M12.75 6.75H5.25C4.45461 6.75085 3.69204 7.06719 3.12962 7.62962C2.56719 8.19204 2.25085 8.95461 2.25 9.75V14.25C2.25085 15.0454 2.56719 15.808 3.12962 16.3704C3.69204 16.9328 4.45461 17.2492 5.25 17.25H12.75C13.5454 17.2492 14.308 16.9328 14.8704 16.3704C15.4328 15.808 15.7492 15.0454 15.75 14.25V9.75C15.7492 8.95461 15.4328 8.19204 14.8704 7.62962C14.308 7.06719 13.5454 6.75085 12.75 6.75ZM9 12.75C8.70333 12.75 8.41332 12.662 8.16664 12.4972C7.91997 12.3324 7.72771 12.0981 7.61418 11.824C7.50065 11.5499 7.47094 11.2483 7.52882 10.9574C7.5867 10.6664 7.72956 10.3991 7.93934 10.1893C8.14912 9.97956 8.41639 9.8367 8.70736 9.77882C8.99834 9.72094 9.29994 9.75065 9.57402 9.86418C9.84811 9.97771 10.0824 10.17 10.2472 10.4166C10.412 10.6633 10.5 10.9533 10.5 11.25C10.5 11.6478 10.3419 12.0293 10.0606 12.3106C9.77935 12.5919 9.39782 12.75 9 12.75Z"
        fill="currentColor" />
</svg>
