<svg width="24" height="24" viewBox="0 0 24 24" fill="none" xmlns="http://www.w3.org/2000/svg">
    <path
        d="M16.365 22.5004H7.63502C6.64776 22.5371 5.68592 22.1827 4.95847 21.5143C4.23103 20.8458 3.79676 19.9173 3.75002 18.9304V14.2504C3.75002 14.0515 3.82903 13.8608 3.96969 13.7201C4.11034 13.5795 4.3011 13.5004 4.50002 13.5004C4.69893 13.5004 4.88969 13.5795 5.03035 13.7201C5.171 13.8608 5.25002 14.0515 5.25002 14.2504V18.9304C5.29611 19.5195 5.57209 20.0668 6.01835 20.4542C6.4646 20.8415 7.0453 21.0377 7.63502 21.0004H16.365C16.9547 21.0377 17.5354 20.8415 17.9817 20.4542C18.4279 20.0668 18.7039 19.5195 18.75 18.9304V14.2504C18.75 14.0515 18.829 13.8608 18.9697 13.7201C19.1103 13.5795 19.3011 13.5004 19.5 13.5004C19.6989 13.5004 19.8897 13.5795 20.0303 13.7201C20.171 13.8608 20.25 14.0515 20.25 14.2504V18.9304C20.2033 19.9173 19.769 20.8458 19.0416 21.5143C18.3141 22.1827 17.3523 22.5371 16.365 22.5004ZM22.2825 12.5329C22.3528 12.4632 22.4086 12.3803 22.4467 12.2889C22.4848 12.1975 22.5044 12.0995 22.5044 12.0004C22.5044 11.9014 22.4848 11.8034 22.4467 11.712C22.4086 11.6206 22.3528 11.5377 22.2825 11.4679L12.5325 1.71794C12.4628 1.64765 12.3798 1.59185 12.2884 1.55377C12.1971 1.5157 12.099 1.49609 12 1.49609C11.901 1.49609 11.803 1.5157 11.7116 1.55377C11.6202 1.59185 11.5372 1.64765 11.4675 1.71794L1.71752 11.4679C1.57629 11.6092 1.49695 11.8007 1.49695 12.0004C1.49695 12.2002 1.57629 12.3917 1.71752 12.5329C1.85874 12.6742 2.05029 12.7535 2.25002 12.7535C2.44974 12.7535 2.64129 12.6742 2.78252 12.5329L12 3.30794L21.2175 12.5329C21.2872 12.6032 21.3702 12.659 21.4616 12.6971C21.553 12.7352 21.651 12.7548 21.75 12.7548C21.849 12.7548 21.9471 12.7352 22.0384 12.6971C22.1298 12.659 22.2128 12.6032 22.2825 12.5329Z"
        fill="currentColor" />
</svg>
