<svg width="24" height="24" viewBox="0 0 24 24" fill="none" xmlns="http://www.w3.org/2000/svg">

        <path
            d="M9.08333 5.33333H7.41667C6.26833 5.33333 5.33333 6.26833 5.33333 7.41667V9.08333C5.33333 10.2317 6.26833 11.1667 7.41667 11.1667H9.08333C10.2317 11.1667 11.1667 10.2317 11.1667 9.08333V7.41667C11.1667 6.26833 10.2317 5.33333 9.08333 5.33333ZM9.5 9.08333C9.5 9.31333 9.31333 9.5 9.08333 9.5H7.41667C7.18667 9.5 7 9.31333 7 9.08333V7.41667C7 7.18667 7.18667 7 7.41667 7H9.08333C9.31333 7 9.5 7.18667 9.5 7.41667V9.08333ZM14.9167 11.1667H16.5833C17.7317 11.1667 18.6667 10.2317 18.6667 9.08333V7.41667C18.6667 6.26833 17.7317 5.33333 16.5833 5.33333H14.9167C13.7683 5.33333 12.8333 6.26833 12.8333 7.41667V9.08333C12.8333 10.2317 13.7683 11.1667 14.9167 11.1667ZM14.5 7.41667C14.5 7.18667 14.6867 7 14.9167 7H16.5833C16.8133 7 17 7.18667 17 7.41667V9.08333C17 9.31333 16.8133 9.5 16.5833 9.5H14.9167C14.6867 9.5 14.5 9.31333 14.5 9.08333V7.41667ZM9.08333 12.8333H7.41667C6.26833 12.8333 5.33333 13.7683 5.33333 14.9167V16.5833C5.33333 17.7317 6.26833 18.6667 7.41667 18.6667H9.08333C10.2317 18.6667 11.1667 17.7317 11.1667 16.5833V14.9167C11.1667 13.7683 10.2317 12.8333 9.08333 12.8333ZM9.5 16.5833C9.5 16.8133 9.31333 17 9.08333 17H7.41667C7.18667 17 7 16.8133 7 16.5833V14.9167C7 14.6867 7.18667 14.5 7.41667 14.5H9.08333C9.31333 14.5 9.5 14.6867 9.5 14.9167V16.5833ZM8.66667 21.1667C8.66667 21.6267 8.29333 22 7.83333 22H6.16667C3.86917 22 2 20.1308 2 17.8333V16.1667C2 15.7067 2.37333 15.3333 2.83333 15.3333C3.29333 15.3333 3.66667 15.7067 3.66667 16.1667V17.8333C3.66667 19.2117 4.78833 20.3333 6.16667 20.3333H7.83333C8.29333 20.3333 8.66667 20.7067 8.66667 21.1667ZM22 16.1667V17.8333C22 20.1308 20.1308 22 17.8333 22H16.1667C15.7067 22 15.3333 21.6267 15.3333 21.1667C15.3333 20.7067 15.7067 20.3333 16.1667 20.3333H17.8333C19.2117 20.3333 20.3333 19.2117 20.3333 17.8333V16.1667C20.3333 15.7067 20.7067 15.3333 21.1667 15.3333C21.6267 15.3333 22 15.7067 22 16.1667ZM22 6.16667V7.83333C22 8.29333 21.6267 8.66667 21.1667 8.66667C20.7067 8.66667 20.3333 8.29333 20.3333 7.83333V6.16667C20.3333 4.78833 19.2117 3.66667 17.8333 3.66667H16.1667C15.7067 3.66667 15.3333 3.29333 15.3333 2.83333C15.3333 2.37333 15.7067 2 16.1667 2H17.8333C20.1308 2 22 3.86917 22 6.16667ZM2 7.83333V6.16667C2 3.86917 3.86917 2 6.16667 2H7.83333C8.29333 2 8.66667 2.37333 8.66667 2.83333C8.66667 3.29333 8.29333 3.66667 7.83333 3.66667H6.16667C4.78833 3.66667 3.66667 4.78833 3.66667 6.16667V7.83333C3.66667 8.29333 3.29333 8.66667 2.83333 8.66667C2.37333 8.66667 2 8.29333 2 7.83333ZM15.3333 17.4167C15.3333 18.1067 14.7733 18.6667 14.0833 18.6667C13.3933 18.6667 12.8333 18.1067 12.8333 17.4167C12.8333 16.7267 13.3933 16.1667 14.0833 16.1667C14.7733 16.1667 15.3333 16.7267 15.3333 17.4167ZM17.4167 12.8333C18.1067 12.8333 18.6667 13.3933 18.6667 14.0833C18.6667 14.7733 18.1067 15.3333 17.4167 15.3333C16.7267 15.3333 16.1667 14.7733 16.1667 14.0833C16.1667 13.3933 16.7267 12.8333 17.4167 12.8333ZM12.8333 14.0833C12.8333 13.3933 13.3933 12.8333 14.0833 12.8333C14.7733 12.8333 15.3333 13.3933 15.3333 14.0833C15.3333 14.7733 14.7733 15.3333 14.0833 15.3333C13.3933 15.3333 12.8333 14.7733 12.8333 14.0833Z"
            fill="currentColor" />

    <defs>
        <clipPath id="clip0_3506_600">
            <rect width="20" height="20" fill="white" transform="translate(2 2)" />
        </clipPath>
    </defs>
</svg>
