<svg width="24" height="24" viewBox="0 0 24 24" fill="none" xmlns="http://www.w3.org/2000/svg">

        <path
            d="M12.2775 22.5H11.7225C11.4533 22.4973 11.1875 22.4402 10.941 22.3321C10.6945 22.224 10.4724 22.0671 10.2881 21.8709C10.1038 21.6747 9.96114 21.4433 9.86866 21.1905C9.77618 20.9377 9.73582 20.6688 9.75 20.4V19.5C9.74833 19.4031 9.71734 19.3089 9.66111 19.2299C9.60488 19.1509 9.52605 19.0908 9.435 19.0575C9.235 18.9825 9.0325 18.9 8.8275 18.81C8.74257 18.7662 8.64591 18.7506 8.55152 18.7655C8.45713 18.7803 8.36992 18.8248 8.3025 18.8925L7.5525 19.6425C7.36933 19.8257 7.15185 19.9711 6.91249 20.0703C6.67314 20.1694 6.41659 20.2205 6.1575 20.2205C5.89841 20.2205 5.64186 20.1694 5.40251 20.0703C5.16315 19.9711 4.94567 19.8257 4.7625 19.6425L4.575 19.425C4.3606 19.2116 4.19144 18.9572 4.07762 18.6769C3.9638 18.3966 3.90766 18.0963 3.91256 17.7938C3.91746 17.4914 3.9833 17.193 4.10614 16.9166C4.22898 16.6402 4.4063 16.3913 4.6275 16.185L5.1225 15.6975C5.19021 15.6301 5.2347 15.5429 5.24953 15.4485C5.26436 15.3541 5.24876 15.2574 5.205 15.1725C5.115 14.97 5.0325 14.775 4.9575 14.565C4.9233 14.4715 4.86091 14.391 4.77894 14.3346C4.69698 14.2782 4.5995 14.2486 4.5 14.25H3.4725C2.94936 14.25 2.44765 14.0422 2.07773 13.6723C1.70782 13.3024 1.5 12.8006 1.5 12.2775V11.7225C1.50266 11.4533 1.55977 11.1875 1.66787 10.941C1.77598 10.6945 1.93286 10.4724 2.12906 10.2881C2.32526 10.1038 2.55672 9.96114 2.80951 9.86866C3.06231 9.77618 3.3312 9.73582 3.6 9.75H4.5C4.59694 9.74833 4.6911 9.71734 4.77009 9.66111C4.84908 9.60488 4.90919 9.52605 4.9425 9.435C5.0175 9.235 5.1 9.0325 5.19 8.8275C5.23376 8.74257 5.24936 8.64591 5.23453 8.55152C5.2197 8.45713 5.17521 8.36992 5.1075 8.3025L4.3575 7.5525C4.17427 7.36933 4.02891 7.15185 3.92975 6.91249C3.83058 6.67314 3.77954 6.41659 3.77954 6.1575C3.77954 5.89841 3.83058 5.64186 3.92975 5.40251C4.02891 5.16315 4.17427 4.94567 4.3575 4.7625L4.575 4.575C4.7884 4.3606 5.04283 4.19144 5.3231 4.07762C5.60336 3.9638 5.9037 3.90766 6.20616 3.91256C6.50862 3.91746 6.80698 3.9833 7.08341 4.10614C7.35984 4.22898 7.60866 4.4063 7.815 4.6275L8.3025 5.1225C8.36992 5.19021 8.45713 5.2347 8.55152 5.24953C8.64591 5.26436 8.74257 5.24876 8.8275 5.205C9.0275 5.115 9.23 5.0325 9.435 4.9575C9.52845 4.9233 9.60896 4.86091 9.6654 4.77894C9.72183 4.69698 9.7514 4.5995 9.75 4.5V3.4725C9.75 3.21347 9.80102 2.95697 9.90015 2.71766C9.99928 2.47834 10.1446 2.2609 10.3277 2.07773C10.5109 1.89457 10.7283 1.74927 10.9677 1.65015C11.207 1.55102 11.4635 1.5 11.7225 1.5H12.2775C12.5467 1.50266 12.8125 1.55977 13.059 1.66787C13.3055 1.77598 13.5276 1.93286 13.7119 2.12906C13.8962 2.32526 14.0389 2.55672 14.1313 2.80951C14.2238 3.06231 14.2642 3.3312 14.25 3.6V4.5C14.2517 4.59694 14.2827 4.6911 14.3389 4.77009C14.3951 4.84908 14.4739 4.90919 14.565 4.9425C14.77 5.0175 14.9725 5.1 15.1725 5.19C15.2574 5.23376 15.3541 5.24936 15.4485 5.23453C15.5429 5.2197 15.6301 5.17521 15.6975 5.1075L16.4475 4.3575C16.6307 4.17427 16.8481 4.02891 17.0875 3.92975C17.3269 3.83058 17.5834 3.77954 17.8425 3.77954C18.1016 3.77954 18.3581 3.83058 18.5975 3.92975C18.8369 4.02891 19.0543 4.17427 19.2375 4.3575L19.4325 4.5525C19.6469 4.7659 19.8161 5.02033 19.9299 5.3006C20.0437 5.58086 20.0998 5.8812 20.0949 6.18366C20.09 6.48612 20.0242 6.78448 19.9014 7.06091C19.7785 7.33734 19.6012 7.58616 19.38 7.7925L18.885 8.28C18.8173 8.34742 18.7728 8.43463 18.758 8.52902C18.7431 8.62341 18.7587 8.72007 18.8025 8.805C18.8925 9.005 18.975 9.2075 19.05 9.4125C19.08 9.50894 19.1396 9.59348 19.2204 9.65407C19.3012 9.71467 19.399 9.74824 19.5 9.75H20.5425C21.063 9.75396 21.5609 9.96352 21.9276 10.333C22.2943 10.7025 22.5 11.2019 22.5 11.7225V12.2775C22.4973 12.5467 22.4402 12.8125 22.3321 13.059C22.224 13.3055 22.0671 13.5276 21.8709 13.7119C21.6747 13.8962 21.4433 14.0389 21.1905 14.1313C20.9377 14.2238 20.6688 14.2642 20.4 14.25H19.5C19.4031 14.2517 19.3089 14.2827 19.2299 14.3389C19.1509 14.3951 19.0908 14.4739 19.0575 14.565C18.9825 14.775 18.9 14.97 18.81 15.1725C18.7662 15.2574 18.7506 15.3541 18.7655 15.4485C18.7803 15.5429 18.8248 15.6301 18.8925 15.6975L19.6425 16.4475C19.8257 16.6307 19.9711 16.8481 20.0703 17.0875C20.1694 17.3269 20.2205 17.5834 20.2205 17.8425C20.2205 18.1016 20.1694 18.3581 20.0703 18.5975C19.9711 18.8369 19.8257 19.0543 19.6425 19.2375L19.4475 19.4325C19.2341 19.6469 18.9797 19.8161 18.6994 19.9299C18.4191 20.0437 18.1188 20.0998 17.8163 20.0949C17.5139 20.09 17.2155 20.0242 16.9391 19.9014C16.6627 19.7785 16.4138 19.6012 16.2075 19.38L15.72 18.885C15.6526 18.8173 15.5654 18.7728 15.471 18.758C15.3766 18.7431 15.2799 18.7587 15.195 18.8025C14.995 18.8925 14.7925 18.975 14.5875 19.05C14.4911 19.08 14.4065 19.1396 14.3459 19.2204C14.2853 19.3012 14.2518 19.399 14.25 19.5V20.5425C14.246 21.063 14.0365 21.5609 13.667 21.9276C13.2975 22.2943 12.7981 22.5 12.2775 22.5ZM8.6325 17.25C8.9197 17.2496 9.20362 17.311 9.465 17.43C9.6225 17.505 9.7875 17.5725 9.945 17.6325C10.3284 17.7715 10.6594 18.0255 10.893 18.3598C11.1266 18.694 11.2513 19.0922 11.25 19.5V20.4C11.25 20.76 11.4375 21 11.7225 21H12.2775C12.4028 21 12.523 20.9502 12.6116 20.8616C12.7002 20.773 12.75 20.6528 12.75 20.5275V19.5C12.7523 19.0959 12.8777 18.7022 13.1096 18.3712C13.3414 18.0402 13.6686 17.7878 14.0475 17.6475C14.2136 17.5891 14.3764 17.5215 14.535 17.445C14.9044 17.2697 15.319 17.2131 15.7219 17.283C16.1248 17.3528 16.4961 17.5456 16.785 17.835L17.2725 18.3225C17.3385 18.405 17.4212 18.4726 17.5152 18.5209C17.6092 18.5692 17.7123 18.5971 17.8178 18.6027C17.9233 18.6084 18.0288 18.5917 18.1274 18.5538C18.226 18.5158 18.3155 18.4574 18.39 18.3825L18.585 18.18C18.6288 18.1371 18.6634 18.0857 18.6866 18.0289C18.7098 17.9722 18.7212 17.9113 18.72 17.85C18.7209 17.7876 18.7094 17.7257 18.6863 17.6677C18.6631 17.6098 18.6287 17.5571 18.585 17.5125L17.835 16.7625C17.5449 16.474 17.3522 16.1021 17.2836 15.6987C17.215 15.2954 17.2741 14.8807 17.4525 14.5125C17.52 14.355 17.5875 14.19 17.6475 14.0325C17.7893 13.6558 18.0426 13.3312 18.3735 13.1021C18.7045 12.8729 19.0975 12.7501 19.5 12.75H20.4C20.76 12.75 21 12.5625 21 12.2775V11.7225C21 11.5972 20.9502 11.477 20.8616 11.3884C20.773 11.2998 20.6528 11.25 20.5275 11.25H19.5C19.0959 11.2477 18.7022 11.1223 18.3712 10.8904C18.0402 10.6586 17.7878 10.3314 17.6475 9.9525C17.5891 9.78636 17.5215 9.62361 17.445 9.465C17.2697 9.09559 17.2131 8.68098 17.283 8.27811C17.3528 7.87524 17.5456 7.50387 17.835 7.215L18.3075 6.75C18.39 6.68397 18.4576 6.60126 18.5059 6.50729C18.5542 6.41331 18.5821 6.31019 18.5877 6.20469C18.5934 6.09918 18.5767 5.99367 18.5388 5.89506C18.5008 5.79645 18.4424 5.70698 18.3675 5.6325L18.165 5.4375C18.0738 5.35423 17.9548 5.30806 17.8312 5.30806C17.7077 5.30806 17.5887 5.35423 17.4975 5.4375L16.7475 6.1875C16.459 6.47756 16.0871 6.67032 15.6837 6.73889C15.2804 6.80746 14.8657 6.74842 14.4975 6.57L14.0175 6.375C13.64 6.22943 13.3161 5.97168 13.0894 5.63645C12.8628 5.30122 12.7444 4.9046 12.75 4.5V3.6C12.75 3.24 12.5625 3 12.2775 3H11.7225C11.5972 3 11.477 3.04978 11.3884 3.13839C11.2998 3.227 11.25 3.34719 11.25 3.4725V4.5C11.2477 4.90407 11.1223 5.29783 10.8904 5.6288C10.6586 5.95977 10.3314 6.21222 9.9525 6.3525C9.7875 6.4125 9.6225 6.48 9.465 6.555C9.09559 6.73027 8.68098 6.78687 8.27811 6.71704C7.87524 6.64721 7.50387 6.45437 7.215 6.165L6.75 5.6925C6.68397 5.61001 6.60126 5.54241 6.50729 5.49411C6.41331 5.44582 6.31019 5.41792 6.20469 5.41226C6.09918 5.40659 5.99367 5.42329 5.89506 5.46124C5.79645 5.4992 5.70698 5.55756 5.6325 5.6325L5.4375 5.835C5.3509 5.92452 5.30248 6.0442 5.30248 6.16875C5.30248 6.2933 5.3509 6.41298 5.4375 6.5025L6.1875 7.2525C6.47756 7.54104 6.67032 7.91293 6.73889 8.31628C6.80746 8.71962 6.74842 9.13432 6.57 9.5025C6.5025 9.66 6.435 9.825 6.375 9.9825C6.22943 10.3601 5.97168 10.6839 5.63645 10.9106C5.30122 11.1372 4.9046 11.2556 4.5 11.25H3.6C3.24 11.25 3 11.4375 3 11.7225V12.2775C3 12.4028 3.04978 12.523 3.13839 12.6116C3.227 12.7002 3.34719 12.75 3.4725 12.75H4.5C4.90522 12.7518 5.30012 12.8779 5.63139 13.1113C5.96267 13.3447 6.21436 13.6741 6.3525 14.055C6.4125 14.2125 6.48 14.3775 6.5475 14.535C6.72592 14.9032 6.78496 15.3179 6.71639 15.7212C6.64782 16.1246 6.45506 16.4965 6.165 16.785L5.6925 17.25C5.61001 17.316 5.54241 17.3987 5.49411 17.4927C5.44582 17.5867 5.41792 17.6898 5.41226 17.7953C5.40659 17.9008 5.42329 18.0063 5.46124 18.1049C5.4992 18.2035 5.55756 18.293 5.6325 18.3675L5.835 18.5625C5.92452 18.6491 6.0442 18.6975 6.16875 18.6975C6.2933 18.6975 6.41298 18.6491 6.5025 18.5625L7.2525 17.8125C7.62125 17.4518 8.11664 17.2498 8.6325 17.25ZM12 15.75C11.2583 15.75 10.5333 15.5301 9.91661 15.118C9.29993 14.706 8.81928 14.1203 8.53545 13.4351C8.25162 12.7498 8.17736 11.9958 8.32205 11.2684C8.46675 10.541 8.8239 9.8728 9.34835 9.34835C9.8728 8.8239 10.541 8.46675 11.2684 8.32205C11.9958 8.17736 12.7498 8.25162 13.4351 8.53545C14.1203 8.81928 14.706 9.29993 15.118 9.91661C15.5301 10.5333 15.75 11.2583 15.75 12C15.75 12.9946 15.3549 13.9484 14.6517 14.6517C13.9484 15.3549 12.9946 15.75 12 15.75ZM12 9.75C11.555 9.75 11.12 9.88196 10.75 10.1292C10.38 10.3764 10.0916 10.7278 9.92127 11.139C9.75097 11.5501 9.70642 12.0025 9.79323 12.439C9.88005 12.8754 10.0943 13.2763 10.409 13.591C10.7237 13.9057 11.1246 14.12 11.561 14.2068C11.9975 14.2936 12.4499 14.249 12.861 14.0787C13.2722 13.9084 13.6236 13.62 13.8708 13.25C14.118 12.88 14.25 12.445 14.25 12C14.25 11.4033 14.0129 10.831 13.591 10.409C13.169 9.98705 12.5967 9.75 12 9.75Z"
            fill="currentColor" />

</svg>
