<svg width="24" height="24" viewBox="0 0 24 24" fill="none" xmlns="http://www.w3.org/2000/svg">

        <path
            d="M12 8.675C10.1583 8.675 8.66667 10.1667 8.66667 12.0083C8.66667 13.85 10.1583 15.3417 12 15.3417C13.8417 15.3417 15.3333 13.85 15.3333 12.0083C15.3333 10.1667 13.8417 8.675 12 8.675ZM12 13.675C11.0833 13.675 10.3333 12.925 10.3333 12.0083C10.3333 11.0917 11.0833 10.3417 12 10.3417C12.9167 10.3417 13.6667 11.0917 13.6667 12.0083C13.6667 12.925 12.9167 13.675 12 13.675ZM18.6667 2H5.33333C3.49167 2 2 3.5 2 5.34167V6.175C2 8.00833 3.49167 9.50833 5.33333 9.50833V17.8417C5.33333 20.1417 7.2 22.0083 9.5 22.0083H14.5C16.8 22.0083 18.6667 20.1417 18.6667 17.8417V9.50833C20.5083 9.50833 22 8.01667 22 6.175V5.34167C22 3.5 20.5083 2 18.6667 2ZM20.3333 6.16667C20.3333 7.08333 19.5833 7.83333 18.6667 7.83333V6.16667C18.6667 5.70833 18.2917 5.33333 17.8333 5.33333C17.375 5.33333 17 5.70833 17 6.16667V17.8333C17 19.2083 15.875 20.3333 14.5 20.3333H9.5C8.125 20.3333 7 19.2083 7 17.8333V6.175C7 5.71667 6.625 5.34167 6.16667 5.34167C5.70833 5.34167 5.33333 5.71667 5.33333 6.175V7.84167C4.41667 7.84167 3.66667 7.09167 3.66667 6.175V5.34167C3.66667 4.425 4.41667 3.675 5.33333 3.675H18.6667C19.5833 3.675 20.3333 4.425 20.3333 5.34167V6.175V6.16667Z"
            fill="currentColor" />

    <defs>
        <clipPath id="clip0_3506_599">
            <rect width="20" height="20" fill="white" transform="translate(2 2)" />
        </clipPath>
    </defs>
</svg>
